<?xml version="1.0" standalone="no"?>
<!DOCTYPE svg PUBLIC "-//W3C//DTD SVG 20010904//EN"
 "http://www.w3.org/TR/2001/REC-SVG-20010904/DTD/svg10.dtd">
<svg version="1.0" xmlns="http://www.w3.org/2000/svg"
 width="512.000000pt" height="512.000000pt" viewBox="0 0 512.000000 512.000000"
 preserveAspectRatio="xMidYMid meet">
<metadata>
Created by potrace 1.16, written by Peter Selinger 2001-2019
</metadata>
<g transform="translate(0.000000,512.000000) scale(0.100000,-0.100000)"
fill="#000000" stroke="none">
<path d="M2453 5094 c-24 -14 -54 -44 -68 -68 l-25 -43 0 -2144 0 -2144 -362
362 c-246 245 -375 367 -400 378 -83 34 -183 6 -242 -67 -22 -29 -30 -51 -34
-92 -9 -117 -42 -76 551 -678 298 -303 560 -561 583 -574 57 -34 151 -34 208
0 23 13 285 271 583 574 593 602 560 561 551 678 -11 126 -154 209 -276 159
-25 -11 -154 -133 -399 -378 l-363 -362 0 2144 0 2144 -25 43 c-37 63 -95 94
-176 94 -51 0 -73 -5 -106 -26z"/>
</g>
</svg>
